<mxfile host="app.diagrams.net" modified="2021-01-21T07:04:48.438Z" agent="5.0 (Macintosh; Intel Mac OS X 11_1_0) AppleWebKit/537.36 (KHTML, like Gecko) Chrome/87.0.4280.141 Safari/537.36" etag="3lACFh6Mcl6gDdoUt2gw" version="14.2.6" type="github">
  <diagram id="0etI7U6GQ6Rr9QqrJn2d" name="第 1 页">
    <mxGraphModel dx="1426" dy="800" grid="1" gridSize="10" guides="1" tooltips="1" connect="1" arrows="1" fold="1" page="1" pageScale="1" pageWidth="827" pageHeight="1169" background="#F4F3E8" math="0" shadow="0">
      <root>
        <mxCell id="0" />
        <mxCell id="1" parent="0" />
        <mxCell id="Oy94kdvGB5EBkjyzayGO-7" value="" style="shape=actor;whiteSpace=wrap;html=1;fillColor=#dae8fc;strokeColor=#6c8ebf;sketch=1;rounded=1;" vertex="1" parent="1">
          <mxGeometry x="275" y="525" width="40" height="60" as="geometry" />
        </mxCell>
        <mxCell id="Oy94kdvGB5EBkjyzayGO-8" value="" style="shape=actor;whiteSpace=wrap;html=1;fillColor=#d5e8d4;strokeColor=#82b366;sketch=1;rounded=1;" vertex="1" parent="1">
          <mxGeometry x="520" y="525" width="40" height="60" as="geometry" />
        </mxCell>
        <mxCell id="Oy94kdvGB5EBkjyzayGO-9" value="" style="shape=actor;whiteSpace=wrap;html=1;fillColor=#ffe6cc;strokeColor=#d79b00;sketch=1;rounded=1;" vertex="1" parent="1">
          <mxGeometry x="400.5" y="676" width="40" height="60" as="geometry" />
        </mxCell>
        <mxCell id="Oy94kdvGB5EBkjyzayGO-13" value="高级技术工人" style="text;html=1;align=center;verticalAlign=middle;resizable=0;points=[];autosize=1;sketch=1;rounded=1;" vertex="1" parent="1">
          <mxGeometry x="250" y="490" width="90" height="20" as="geometry" />
        </mxCell>
        <mxCell id="Oy94kdvGB5EBkjyzayGO-14" value="领域内的超级明星" style="text;html=1;align=center;verticalAlign=middle;resizable=0;points=[];autosize=1;sketch=1;rounded=1;" vertex="1" parent="1">
          <mxGeometry x="485" y="490" width="110" height="20" as="geometry" />
        </mxCell>
        <mxCell id="Oy94kdvGB5EBkjyzayGO-16" value="资本家" style="text;html=1;align=center;verticalAlign=middle;resizable=0;points=[];autosize=1;sketch=1;rounded=1;" vertex="1" parent="1">
          <mxGeometry x="395.5" y="640" width="50" height="20" as="geometry" />
        </mxCell>
        <mxCell id="Oy94kdvGB5EBkjyzayGO-20" value="" style="shape=curlyBracket;whiteSpace=wrap;html=1;rounded=1;sketch=1;direction=south;size=0.5;" vertex="1" parent="1">
          <mxGeometry x="295" y="400" width="245" height="70" as="geometry" />
        </mxCell>
        <mxCell id="Oy94kdvGB5EBkjyzayGO-21" value="" style="verticalLabelPosition=bottom;verticalAlign=top;html=1;shape=mxgraph.basic.x;rounded=1;sketch=1;fillStyle=solid;fillColor=#FF0000;" vertex="1" parent="1">
          <mxGeometry x="457" y="690" width="25" height="20" as="geometry" />
        </mxCell>
        <mxCell id="Oy94kdvGB5EBkjyzayGO-22" value="" style="verticalLabelPosition=bottom;verticalAlign=top;html=1;shape=mxgraph.basic.tick;rounded=1;sketch=1;fillColor=#009900;fillStyle=solid;" vertex="1" parent="1">
          <mxGeometry x="370" y="370" width="25.5" height="25" as="geometry" />
        </mxCell>
        <mxCell id="Oy94kdvGB5EBkjyzayGO-23" value="拥有相同的可复制特质" style="text;html=1;align=center;verticalAlign=middle;resizable=0;points=[];autosize=1;" vertex="1" parent="1">
          <mxGeometry x="387" y="375" width="140" height="20" as="geometry" />
        </mxCell>
        <mxCell id="Oy94kdvGB5EBkjyzayGO-24" value="没有可复制性" style="text;html=1;align=center;verticalAlign=middle;resizable=0;points=[];autosize=1;" vertex="1" parent="1">
          <mxGeometry x="478" y="690" width="90" height="20" as="geometry" />
        </mxCell>
      </root>
    </mxGraphModel>
  </diagram>
</mxfile>
